<svg width="190" height="10" viewBox="0 0 190 10" fill="none" xmlns="http://www.w3.org/2000/svg">
<g clip-path="url(#clip0_2073_235)">
<path d="M189.757 4.22097C187.338 2.57908 182.258 -0.827512 179.654 0.374815C177.901 1.18283 176.186 2.04256 174.51 2.96693C173.665 3.43235 172.411 3.85251 171.605 3.85251C150.261 3.85251 128.917 3.85251 107.566 3.88483C105.179 3.88483 103.215 3.66505 101.673 3.21903C99.7537 2.65665 97.9047 1.88742 96.126 0.898409C95.9532 0.801447 95.5693 0.704485 94.9807 0.613987C94.7951 0.581667 94.6224 0.607523 94.4496 0.678629C89.9837 2.57262 86.5095 4.00119 82.6706 3.98826C61.3071 3.90423 39.9756 3.91069 18.6889 4.00119C15.7138 4.01412 12.6427 1.77753 10.1538 0.497633C8.89334 -0.148779 7.6329 -0.161708 6.38525 0.458848C4.15229 1.55775 2.07929 2.91522 0.179031 4.52478C-0.0385069 4.70578 -0.0640995 5.04191 0.127846 5.25523C1.77217 7.10397 5.38714 9.92879 8.01679 9.79304C11.8557 9.59912 14.3894 5.93396 18.2091 5.90164C37.2244 5.7465 58.0952 5.71418 80.8151 5.81114C83.0225 5.81761 84.7692 5.9986 86.0424 6.34766C88.8129 7.10397 91.0202 8.52607 93.5091 9.88354C93.7202 9.9999 93.9698 10.0322 94.2001 9.97404C94.9423 9.78012 95.6589 9.50862 96.3435 9.16602C98.3013 8.17701 100.336 7.27203 102.441 6.45109C103.631 5.98567 105.141 5.75297 106.971 5.75943C127.995 5.77236 149.007 5.77882 170.006 5.77882C172.027 5.77882 173.473 6.03092 174.337 6.54159C176.007 7.51121 180.582 10.5817 182.36 9.90293C185.131 8.84928 187.62 7.23325 189.834 5.06777C190.083 4.82213 190.045 4.41489 189.757 4.22097ZM99.0371 5.18412L94.5072 7.60817C94.4432 7.64695 94.3665 7.64695 94.3025 7.60817L90.0157 5.28108C89.8494 5.19059 89.8686 4.94495 90.0477 4.88031L95.0639 3.07682C95.1151 3.05743 95.1726 3.05743 95.2238 3.07682L99.0243 4.78335C99.1907 4.85445 99.1971 5.08716 99.0371 5.17766V5.18412Z" fill="#16cc8f"/>
</g>
<defs>
<clipPath id="clip0_2073_235">
<rect width="190" height="10" fill="white"/>
</clipPath>
</defs>
</svg>
